<svg width="187" height="24" viewBox="0 0 187 24" fill="none" xmlns="http://www.w3.org/2000/svg">
<path d="M9.89063 23C12.3438 23 15.8438 22.8281 18.1563 19.8906C20.5156 16.9375 19.1563 13.4375 17.4844 11.9375C16.3125 10.8906 14.5938 10.0938 12.3125 9.57814C11.4531 9.39064 8.8125 8.79689 7.6875 8.53126C6.5 8.26564 6.28125 6.98439 7.34375 6.21876C9.45313 4.71876 10.7031 5.56251 14.1875 7.17189C15.1719 7.62501 15.9844 7.65626 16.6563 7.26564C17.8594 6.53126 18.6719 4.03126 17.0938 2.82814C15.5156 1.64064 13.5469 0.921889 11.1563 0.687514C7.92188 0.359389 4.28125 1.28126 2.51563 2.98439C-0.171871 5.29689 -0.453121 10.6406 4.10938 12.6875C4.92188 12.9531 8.65625 14.1875 10.1563 14.6406C11.3594 15 12.2031 15.2813 12.6563 15.5C12.9844 15.6719 13.1719 15.9375 13.1875 16.2656C13.25 16.9375 12.2969 17.6406 11.4219 17.7031C8.67188 17.9375 6.28125 17.3281 4.25 15.8906C3.07813 15.0781 1.875 15.2344 0.953129 16.3125C-0.328121 17.8594 -0.312496 19.1563 1 20.2188C1.45313 20.5938 2.0625 20.9688 2.82813 21.3438C4.79688 22.3125 7.15625 22.8594 9.89063 23Z"/>
<path d="M17.7494 11.9531C17.6869 13.6875 18.015 15.2969 18.7494 16.75C20.1088 19.4531 23.5931 22.7813 28.6088 22.9844C29.7494 23.0313 30.9369 22.9531 32.14 22.7188C34.9056 22.2031 37.1244 20.9063 38.8119 18.8281C41.6244 15.375 41.5306 11.6094 40.89 9.03126C39.8431 4.82814 37.7181 3.09376 34.6713 1.60939C30.5931 -0.374986 25.9681 0.609389 23.015 2.25001C19.5775 4.18751 17.5775 7.90626 17.7494 11.9531ZM29.4056 6.34376C32.265 6.14064 35.1556 9.09376 35.0463 11.9531C34.9838 14.3125 32.0775 17.5781 29.3275 17.3438C26.5931 17.1094 23.9525 14.5938 23.9525 11.7031C23.9681 8.87501 26.6088 6.17189 29.4056 6.34376Z"/>
<path d="M39.7331 13.0625C39.7488 13.9219 39.7956 14.6094 39.8738 15.1563C40.2644 18.0156 41.8581 20.3906 44.6081 21.8906C46.1863 22.75 49.3894 22.9844 49.905 23C50.6081 23.0156 54.0925 22.9531 56.2644 21.5938C59.0925 19.8438 60.6394 16.9531 60.6394 13.4375C60.6238 12.625 60.6238 11.1406 60.6238 8.96876V4.50001C60.6238 3.20314 60.4831 1.67189 59.5456 1.12501C58.3425 0.421889 57.1081 0.390639 55.8425 1.01564C55.2019 1.32814 54.8894 1.87501 54.8738 2.65626C54.8269 4.98439 54.7956 10.6875 54.7956 11.6406C54.7956 11.875 54.78 12.3438 54.7331 13.0156C54.6238 14.6406 53.7956 16.5313 52.1706 17.1563C50.4831 17.8281 48.8269 17.5313 47.905 17.0469C45.7175 15.875 45.4988 13.4219 45.4988 10.5625C45.4831 7.12501 45.4831 4.53126 45.4988 2.79689C45.4988 2.35939 45.3738 1.95314 45.1238 1.59376C44.5769 0.828139 43.6081 0.437514 41.8738 0.687514C40.1238 0.953139 39.7956 2.51564 39.7488 3.75001C39.7331 4.14064 39.7331 5.87501 39.7331 8.92189V13.0625Z"/>
<path d="M61.3888 17.8281H61.3575V19.9688C61.3731 21.1094 61.7638 21.9219 62.5294 22.4375C63.6388 23.125 65.6544 22.9688 66.545 22.0938C67.6075 21.0469 67.3731 20.0469 67.3575 18.5469C67.3575 17.8125 67.4825 17.2188 67.7325 16.7656C68.1231 16.2188 68.6075 15.9844 69.1856 16.0781C70.0763 16.1875 70.92 16.875 71.7169 18.1719C73.4825 20.3125 74.4981 21.5313 74.7638 21.7969C75.9981 23.1094 77.5606 23.4219 79.0763 22.3594C80.3106 21.4688 80.1075 20.0781 79.1856 18.9375C78.3888 17.9063 77.5294 16.8125 76.6075 15.6719C76.3263 15.3281 76.3575 15.0156 76.7013 14.75C76.7481 14.7188 76.8106 14.6875 76.8575 14.6406C77.4981 14.1875 77.9981 13.7188 78.3263 13.2188C78.67 12.8281 78.9513 12.4063 79.1856 11.9844C80.3888 9.65626 80.5919 5.28126 77.9825 2.60939C75.3575 -0.0781109 72.1388 0.421889 68.6388 0.468764C66.4356 0.484389 63.795 0.265639 62.42 1.75001C61.7325 2.48439 61.3888 3.40626 61.3888 4.48439V17.8281ZM70.3106 5.53126C71.67 5.51564 72.6388 5.67189 73.2169 6.01564C74.1075 6.50001 74.4981 7.29689 74.3888 8.40626C74.3106 9.28126 73.5606 10.5156 72.3575 10.625C71.7794 10.6719 70.4044 10.6406 68.2481 10.5313C66.6388 10.4688 66.9825 7.37501 67.0606 6.82814C67.2169 6.00001 67.92 5.57814 69.1544 5.53126H70.3106Z"/>
<path d="M84.8881 0.703139C83.8569 0.796889 83.1381 0.906264 82.7163 1.03126C81.1694 1.51564 81.2163 3.04689 81.2163 4.85939V20.7188C81.2319 21.8438 82.2788 22.9063 83.3881 22.9219C84.6225 22.9531 86.5756 22.9844 89.2631 23C90.185 23 93.7475 23.2344 96.6069 21.7188C100.466 19.6719 102.451 16.4688 102.576 12.0938C102.591 11.3594 102.498 10.3281 102.263 9.01564C101.857 6.64064 100.763 4.75001 98.9663 3.32814C95.0288 0.187514 92.9819 0.703139 87.4194 0.703139H84.8881ZM86.935 8.70314C87.0756 6.51564 88.06 5.89064 89.0756 5.84376C90.9819 5.73439 92.4663 5.92189 93.5444 6.37501C96.685 7.68751 97.6225 11.6094 96.185 14.6094C94.6069 17.8438 90.935 18.1094 88.5756 17.7813C87.2475 17.6563 86.8413 16.8906 86.8569 15.0938L86.935 8.70314Z"/>
<path d="M101.622 11.9531C101.559 13.6875 101.888 15.2969 102.622 16.75C103.981 19.4531 107.466 22.7813 112.481 22.9844C113.622 23.0313 114.809 22.9531 116.013 22.7188C118.778 22.2031 120.997 20.9063 122.684 18.8281C125.497 15.375 125.403 11.6094 124.763 9.03126C123.716 4.82814 121.591 3.09376 118.544 1.60939C114.466 -0.374986 109.841 0.609389 106.888 2.25001C103.45 4.18751 101.45 7.90626 101.622 11.9531ZM113.278 6.34376C116.138 6.14064 119.028 9.09376 118.919 11.9531C118.856 14.3125 115.95 17.5781 113.2 17.3438C110.466 17.1094 107.825 14.5938 107.825 11.7031C107.841 8.87501 110.481 6.17189 113.278 6.34376Z"/>
<path d="M123.606 13.0625C123.621 13.9219 123.668 14.6094 123.746 15.1563C124.137 18.0156 125.731 20.3906 128.481 21.8906C130.059 22.75 133.262 22.9844 133.778 23C134.481 23.0156 137.965 22.9531 140.137 21.5938C142.965 19.8438 144.512 16.9531 144.512 13.4375C144.496 12.625 144.496 11.1406 144.496 8.96876V4.50001C144.496 3.20314 144.356 1.67189 143.418 1.12501C142.215 0.421889 140.981 0.390639 139.715 1.01564C139.074 1.32814 138.762 1.87501 138.746 2.65626C138.699 4.98439 138.668 10.6875 138.668 11.6406C138.668 11.875 138.652 12.3438 138.606 13.0156C138.496 14.6406 137.668 16.5313 136.043 17.1563C134.356 17.8281 132.699 17.5313 131.778 17.0469C129.59 15.875 129.371 13.4219 129.371 10.5625C129.356 7.12501 129.356 4.53126 129.371 2.79689C129.371 2.35939 129.246 1.95314 128.996 1.59376C128.449 0.828139 127.481 0.437514 125.746 0.687514C123.996 0.953139 123.668 2.51564 123.621 3.75001C123.606 4.14064 123.606 5.87501 123.606 8.92189V13.0625Z"/>
<path d="M165.902 14.4531C165.902 14.5938 165.917 13.9844 165.933 12.625C165.949 11.1406 165.511 10.6094 164.246 10.5C162.074 10.3281 159.98 10.2969 157.964 10.375C156.699 10.4219 156.105 11.0313 156.152 12.2031C156.152 12.2188 156.136 12.3125 156.105 12.4531C156.058 14.125 156.605 15.0313 157.73 15.1406C157.839 15.1563 158.105 15.1719 158.558 15.2031C159.246 15.2656 159.777 15.2656 160.011 15.6406C160.089 15.75 159.949 16.0938 159.808 16.2344C158.98 17.0469 158.011 17.5 156.917 17.6094C154.214 17.8594 152.152 17.0156 150.714 15.0938C149.292 13.2031 149.402 10.0469 151.152 7.93751C152.761 5.87501 155.855 4.96876 158.496 6.64064C158.699 6.79689 159.058 7.09376 159.574 7.51564C160.464 8.25001 161.199 9.00001 162.527 9.00001C163.105 9.00001 163.683 8.68751 164.246 8.04689C165.355 6.81251 165.496 5.29689 164.355 4.15626C161.652 1.50001 158.574 0.328139 155.089 0.625014C153.699 0.734389 152.542 0.937514 151.589 1.23439C147.167 2.56251 141.511 8.32814 144.949 16.4688C146.636 20.4531 151.839 23.9531 157.511 22.7031C159.199 22.3438 160.652 22.3594 161.871 22.7656C164.042 23.5 165.636 22.4375 165.746 20.2656C165.855 19.0313 165.902 17.0469 165.902 14.3438V14.4531Z"/>
<path d="M172.432 4.23439C172.417 3.70314 172.401 3.28126 172.354 2.96876C172.167 1.45314 170.854 0.671889 168.901 0.859389C167.761 0.968764 166.792 2.15626 166.807 3.29689C166.823 3.93751 166.823 6.81251 166.823 11.9063V20.6094C166.807 21.0781 166.964 21.5313 167.261 21.9531C167.886 22.7813 168.854 23.1094 170.12 22.9375C170.511 22.875 170.823 22.7813 171.042 22.6719C171.964 22.1563 172.432 21.3281 172.432 20.2031V15.9688C172.417 15.25 172.761 14.8906 173.448 14.875C175.776 14.8594 177.886 14.8594 179.807 14.8906C181.011 14.8906 180.886 15.8906 180.886 17.0938C180.886 17.25 180.87 17.4844 180.854 17.7969C180.839 18.1094 180.823 18.3438 180.823 18.5C180.823 18.9844 180.573 21.5313 181.932 22.4844C183.479 23.5625 186.479 23.0156 186.495 20.2813C186.511 14.4063 186.511 9.20314 186.495 4.65626C186.495 3.64064 186.495 3.10939 186.479 3.04689C186.417 1.75001 185.479 0.890639 184.495 0.828139C183.557 0.687514 182.542 0.937514 182.089 1.20314C181.245 1.70314 180.823 2.53126 180.823 3.67189C180.823 3.90626 180.839 4.26564 180.854 4.71876C180.87 5.18751 180.886 5.53126 180.886 5.76564C180.886 6.12501 180.87 6.85939 180.823 7.93751C180.807 8.60939 180.839 9.57814 180.011 9.57814H173.432C172.698 9.57814 172.448 8.60939 172.448 8.10939C172.432 7.60939 172.432 6.96876 172.432 6.17189V4.23439Z"/>
</svg>
